<mxfile host="app.diagrams.net" agent="Mozilla/5.0 (Windows NT 10.0; Win64; x64) AppleWebKit/537.36 (KHTML, like Gecko) Chrome/139.0.0.0 Safari/537.36 Edg/139.0.0.0" version="28.1.2">
  <diagram name="Page-1" id="d80PRzWp2PpETbzFHtkH">
    <mxGraphModel dx="2045" dy="2270" grid="0" gridSize="10" guides="1" tooltips="1" connect="1" arrows="1" fold="1" page="0" pageScale="1" pageWidth="827" pageHeight="1169" background="none" math="0" shadow="0">
      <root>
        <mxCell id="0" />
        <mxCell id="1" parent="0" />
        <mxCell id="hoeEztR0vJ94EtKwvEr2-5" style="edgeStyle=none;curved=1;rounded=0;orthogonalLoop=1;jettySize=auto;html=1;entryX=0.5;entryY=0;entryDx=0;entryDy=0;fontSize=12;startSize=8;endSize=8;exitX=0.5;exitY=1;exitDx=0;exitDy=0;" edge="1" parent="1" source="hoeEztR0vJ94EtKwvEr2-28" target="UfMAd7jpGBlJGaEiq17c-3">
          <mxGeometry relative="1" as="geometry">
            <mxPoint x="-78" y="97" as="sourcePoint" />
          </mxGeometry>
        </mxCell>
        <mxCell id="hoeEztR0vJ94EtKwvEr2-85" value="" style="edgeStyle=none;curved=1;rounded=0;orthogonalLoop=1;jettySize=auto;html=1;fontSize=12;startSize=8;endSize=8;" edge="1" parent="1" source="UfMAd7jpGBlJGaEiq17c-3" target="hoeEztR0vJ94EtKwvEr2-84">
          <mxGeometry relative="1" as="geometry" />
        </mxCell>
        <mxCell id="UfMAd7jpGBlJGaEiq17c-3" value="Image Preprocessing" style="rounded=0;whiteSpace=wrap;html=1;fillColor=#ffff88;strokeColor=#36393d;" parent="1" vertex="1">
          <mxGeometry x="-138" y="82" width="120" height="60" as="geometry" />
        </mxCell>
        <mxCell id="hoeEztR0vJ94EtKwvEr2-3" style="edgeStyle=none;curved=1;rounded=0;orthogonalLoop=1;jettySize=auto;html=1;exitX=0.5;exitY=1;exitDx=0;exitDy=0;fontSize=12;startSize=8;endSize=8;entryX=0.484;entryY=0.058;entryDx=0;entryDy=0;entryPerimeter=0;" edge="1" parent="1" target="hoeEztR0vJ94EtKwvEr2-1">
          <mxGeometry relative="1" as="geometry">
            <mxPoint x="-78.36842105263156" y="319.2105134662829" as="targetPoint" />
            <mxPoint x="-78" y="283" as="sourcePoint" />
          </mxGeometry>
        </mxCell>
        <mxCell id="hoeEztR0vJ94EtKwvEr2-18" style="edgeStyle=none;curved=1;rounded=0;orthogonalLoop=1;jettySize=auto;html=1;exitX=1;exitY=0.5;exitDx=0;exitDy=0;entryX=0;entryY=0.5;entryDx=0;entryDy=0;fontSize=12;startSize=8;endSize=8;" edge="1" parent="1" target="hoeEztR0vJ94EtKwvEr2-7">
          <mxGeometry relative="1" as="geometry">
            <mxPoint x="-37.5" y="409.5" as="sourcePoint" />
            <mxPoint x="54.5" y="409.5" as="targetPoint" />
          </mxGeometry>
        </mxCell>
        <mxCell id="hoeEztR0vJ94EtKwvEr2-50" value="" style="edgeStyle=none;curved=1;rounded=0;orthogonalLoop=1;jettySize=auto;html=1;fontSize=12;startSize=8;endSize=8;" edge="1" parent="1" source="hoeEztR0vJ94EtKwvEr2-1" target="hoeEztR0vJ94EtKwvEr2-49">
          <mxGeometry relative="1" as="geometry" />
        </mxCell>
        <mxCell id="hoeEztR0vJ94EtKwvEr2-1" value="Receipt&amp;nbsp;&lt;div&gt;Valid?&lt;/div&gt;" style="rhombus;whiteSpace=wrap;html=1;fillColor=#ffcccc;strokeColor=#36393d;" vertex="1" parent="1">
          <mxGeometry x="-118" y="369" width="80" height="80" as="geometry" />
        </mxCell>
        <mxCell id="hoeEztR0vJ94EtKwvEr2-2" style="edgeStyle=none;curved=1;rounded=0;orthogonalLoop=1;jettySize=auto;html=1;entryX=0.5;entryY=0;entryDx=0;entryDy=0;fontSize=12;startSize=8;endSize=8;" edge="1" parent="1" source="hoeEztR0vJ94EtKwvEr2-1" target="hoeEztR0vJ94EtKwvEr2-1">
          <mxGeometry relative="1" as="geometry" />
        </mxCell>
        <mxCell id="hoeEztR0vJ94EtKwvEr2-22" style="edgeStyle=orthogonalEdgeStyle;rounded=0;orthogonalLoop=1;jettySize=auto;html=1;entryX=0;entryY=0.5;entryDx=0;entryDy=0;fontSize=12;startSize=8;endSize=8;exitX=0;exitY=0.5;exitDx=0;exitDy=0;" edge="1" parent="1" source="hoeEztR0vJ94EtKwvEr2-49" target="hoeEztR0vJ94EtKwvEr2-26">
          <mxGeometry relative="1" as="geometry">
            <mxPoint x="-138" y="398" as="sourcePoint" />
            <mxPoint x="-118" y="-82" as="targetPoint" />
            <Array as="points">
              <mxPoint x="-198" y="554" />
              <mxPoint x="-198" y="-182" />
            </Array>
          </mxGeometry>
        </mxCell>
        <mxCell id="hoeEztR0vJ94EtKwvEr2-19" style="edgeStyle=none;curved=1;rounded=0;orthogonalLoop=1;jettySize=auto;html=1;entryX=0;entryY=0.5;entryDx=0;entryDy=0;fontSize=12;startSize=8;endSize=8;exitX=1;exitY=0.5;exitDx=0;exitDy=0;" edge="1" parent="1" source="hoeEztR0vJ94EtKwvEr2-7" target="hoeEztR0vJ94EtKwvEr2-43">
          <mxGeometry relative="1" as="geometry">
            <mxPoint x="134" y="410" as="sourcePoint" />
            <mxPoint x="371" y="410.0000000000002" as="targetPoint" />
          </mxGeometry>
        </mxCell>
        <mxCell id="hoeEztR0vJ94EtKwvEr2-20" style="edgeStyle=none;curved=1;rounded=0;orthogonalLoop=1;jettySize=auto;html=1;entryX=0.523;entryY=0.987;entryDx=0;entryDy=0;fontSize=12;startSize=8;endSize=8;entryPerimeter=0;" edge="1" parent="1" source="hoeEztR0vJ94EtKwvEr2-7" target="hoeEztR0vJ94EtKwvEr2-17">
          <mxGeometry relative="1" as="geometry">
            <mxPoint x="94" y="284" as="targetPoint" />
          </mxGeometry>
        </mxCell>
        <mxCell id="hoeEztR0vJ94EtKwvEr2-7" value="Receipt&amp;nbsp;&lt;div&gt;Type?&lt;/div&gt;" style="rhombus;whiteSpace=wrap;html=1;fillColor=#ffcccc;strokeColor=#36393d;" vertex="1" parent="1">
          <mxGeometry x="54.5" y="369" width="80" height="80" as="geometry" />
        </mxCell>
        <mxCell id="hoeEztR0vJ94EtKwvEr2-36" style="edgeStyle=none;curved=1;rounded=0;orthogonalLoop=1;jettySize=auto;html=1;entryX=0.5;entryY=1;entryDx=0;entryDy=0;fontSize=12;startSize=8;endSize=8;" edge="1" parent="1" source="hoeEztR0vJ94EtKwvEr2-17" target="hoeEztR0vJ94EtKwvEr2-23">
          <mxGeometry relative="1" as="geometry" />
        </mxCell>
        <mxCell id="hoeEztR0vJ94EtKwvEr2-17" value="Product Matching" style="rounded=0;whiteSpace=wrap;html=1;fillColor=#ffff88;strokeColor=#36393d;" vertex="1" parent="1">
          <mxGeometry x="34.5" y="224" width="120" height="60" as="geometry" />
        </mxCell>
        <mxCell id="hoeEztR0vJ94EtKwvEr2-35" style="edgeStyle=none;curved=1;rounded=0;orthogonalLoop=1;jettySize=auto;html=1;entryX=0.5;entryY=1;entryDx=0;entryDy=0;fontSize=12;startSize=8;endSize=8;" edge="1" parent="1" source="hoeEztR0vJ94EtKwvEr2-23" target="hoeEztR0vJ94EtKwvEr2-24">
          <mxGeometry relative="1" as="geometry" />
        </mxCell>
        <mxCell id="hoeEztR0vJ94EtKwvEr2-38" value="" style="edgeStyle=none;curved=1;rounded=0;orthogonalLoop=1;jettySize=auto;html=1;fontSize=12;startSize=8;endSize=8;" edge="1" parent="1" source="hoeEztR0vJ94EtKwvEr2-23" target="hoeEztR0vJ94EtKwvEr2-37">
          <mxGeometry relative="1" as="geometry" />
        </mxCell>
        <mxCell id="hoeEztR0vJ94EtKwvEr2-23" value="Product&amp;nbsp;&lt;div&gt;Exists?&lt;/div&gt;" style="rhombus;whiteSpace=wrap;html=1;fillColor=#ffcccc;strokeColor=#36393d;" vertex="1" parent="1">
          <mxGeometry x="54.5" y="74" width="80" height="80" as="geometry" />
        </mxCell>
        <mxCell id="hoeEztR0vJ94EtKwvEr2-40" value="" style="edgeStyle=orthogonalEdgeStyle;rounded=0;orthogonalLoop=1;jettySize=auto;html=1;fontSize=12;startSize=8;endSize=8;exitX=1;exitY=0.5;exitDx=0;exitDy=0;entryX=0;entryY=0.5;entryDx=0;entryDy=0;entryPerimeter=0;" edge="1" parent="1" source="hoeEztR0vJ94EtKwvEr2-24" target="hoeEztR0vJ94EtKwvEr2-109">
          <mxGeometry relative="1" as="geometry">
            <mxPoint x="222" y="-36" as="targetPoint" />
          </mxGeometry>
        </mxCell>
        <mxCell id="hoeEztR0vJ94EtKwvEr2-24" value="New Product" style="rounded=0;whiteSpace=wrap;html=1;fillColor=#cdeb8b;strokeColor=#36393d;" vertex="1" parent="1">
          <mxGeometry x="49.25" y="-61.5" width="90.5" height="51" as="geometry" />
        </mxCell>
        <mxCell id="hoeEztR0vJ94EtKwvEr2-29" style="edgeStyle=none;curved=1;rounded=0;orthogonalLoop=1;jettySize=auto;html=1;entryX=0.5;entryY=0;entryDx=0;entryDy=0;fontSize=12;startSize=8;endSize=8;" edge="1" parent="1" source="hoeEztR0vJ94EtKwvEr2-26" target="hoeEztR0vJ94EtKwvEr2-28">
          <mxGeometry relative="1" as="geometry" />
        </mxCell>
        <mxCell id="hoeEztR0vJ94EtKwvEr2-26" value="START" style="rounded=1;whiteSpace=wrap;html=1;fillColor=#eeeeee;strokeColor=#36393d;" vertex="1" parent="1">
          <mxGeometry x="-138" y="-212" width="120" height="60" as="geometry" />
        </mxCell>
        <mxCell id="hoeEztR0vJ94EtKwvEr2-28" value="Scan Receipt" style="shape=parallelogram;perimeter=parallelogramPerimeter;whiteSpace=wrap;html=1;fixedSize=1;fillColor=#cce5ff;strokeColor=#36393d;" vertex="1" parent="1">
          <mxGeometry x="-138" y="-66" width="120" height="60" as="geometry" />
        </mxCell>
        <mxCell id="hoeEztR0vJ94EtKwvEr2-30" value="Purchase (IN)" style="text;html=1;align=center;verticalAlign=middle;resizable=0;points=[];autosize=1;strokeColor=none;fillColor=none;fontSize=16;" vertex="1" parent="1">
          <mxGeometry x="101.5" y="324" width="117" height="31" as="geometry" />
        </mxCell>
        <mxCell id="hoeEztR0vJ94EtKwvEr2-31" value="Sales (OUT)" style="text;html=1;align=center;verticalAlign=middle;resizable=0;points=[];autosize=1;strokeColor=none;fillColor=none;fontSize=16;" vertex="1" parent="1">
          <mxGeometry x="198.5" y="416" width="107" height="31" as="geometry" />
        </mxCell>
        <mxCell id="hoeEztR0vJ94EtKwvEr2-33" value="no" style="text;html=1;align=center;verticalAlign=middle;resizable=0;points=[];autosize=1;strokeColor=none;fillColor=none;fontSize=16;" vertex="1" parent="1">
          <mxGeometry x="-77" y="447" width="36" height="31" as="geometry" />
        </mxCell>
        <mxCell id="hoeEztR0vJ94EtKwvEr2-34" value="no" style="text;html=1;align=center;verticalAlign=middle;resizable=0;points=[];autosize=1;strokeColor=none;fillColor=none;fontSize=16;" vertex="1" parent="1">
          <mxGeometry x="93" y="47" width="36" height="31" as="geometry" />
        </mxCell>
        <mxCell id="hoeEztR0vJ94EtKwvEr2-41" value="" style="edgeStyle=none;curved=1;rounded=0;orthogonalLoop=1;jettySize=auto;html=1;fontSize=12;startSize=8;endSize=8;entryX=0.5;entryY=1;entryDx=0;entryDy=0;entryPerimeter=0;" edge="1" parent="1" source="hoeEztR0vJ94EtKwvEr2-37" target="hoeEztR0vJ94EtKwvEr2-109">
          <mxGeometry relative="1" as="geometry">
            <mxPoint x="282" y="-6" as="targetPoint" />
          </mxGeometry>
        </mxCell>
        <mxCell id="hoeEztR0vJ94EtKwvEr2-37" value="Update Stock" style="whiteSpace=wrap;html=1;fillColor=#ffff88;strokeColor=#36393d;" vertex="1" parent="1">
          <mxGeometry x="222" y="82" width="120" height="60" as="geometry" />
        </mxCell>
        <mxCell id="hoeEztR0vJ94EtKwvEr2-63" value="" style="edgeStyle=none;curved=1;rounded=0;orthogonalLoop=1;jettySize=auto;html=1;fontSize=12;startSize=8;endSize=8;exitX=0.5;exitY=0;exitDx=0;exitDy=0;exitPerimeter=0;" edge="1" parent="1" source="hoeEztR0vJ94EtKwvEr2-109" target="hoeEztR0vJ94EtKwvEr2-62">
          <mxGeometry relative="1" as="geometry">
            <mxPoint x="282" y="-66" as="sourcePoint" />
          </mxGeometry>
        </mxCell>
        <mxCell id="hoeEztR0vJ94EtKwvEr2-42" value="yes" style="text;html=1;align=center;verticalAlign=middle;resizable=0;points=[];autosize=1;strokeColor=none;fillColor=none;fontSize=16;" vertex="1" parent="1">
          <mxGeometry x="129" y="115" width="43" height="31" as="geometry" />
        </mxCell>
        <mxCell id="hoeEztR0vJ94EtKwvEr2-46" value="" style="edgeStyle=none;curved=1;rounded=0;orthogonalLoop=1;jettySize=auto;html=1;fontSize=12;startSize=8;endSize=8;" edge="1" parent="1" source="hoeEztR0vJ94EtKwvEr2-43" target="hoeEztR0vJ94EtKwvEr2-45">
          <mxGeometry relative="1" as="geometry" />
        </mxCell>
        <mxCell id="hoeEztR0vJ94EtKwvEr2-43" value="Product Verification&lt;div&gt;(Check Inventory)&lt;/div&gt;" style="rounded=0;whiteSpace=wrap;html=1;fillColor=#ffff88;strokeColor=#36393d;" vertex="1" parent="1">
          <mxGeometry x="371" y="379" width="120" height="60" as="geometry" />
        </mxCell>
        <mxCell id="hoeEztR0vJ94EtKwvEr2-54" value="" style="edgeStyle=none;curved=1;rounded=0;orthogonalLoop=1;jettySize=auto;html=1;fontSize=12;startSize=8;endSize=8;exitX=1;exitY=0.5;exitDx=0;exitDy=0;entryX=0;entryY=0.5;entryDx=0;entryDy=0;" edge="1" parent="1" source="hoeEztR0vJ94EtKwvEr2-45" target="hoeEztR0vJ94EtKwvEr2-53">
          <mxGeometry relative="1" as="geometry">
            <mxPoint x="571" y="163" as="targetPoint" />
          </mxGeometry>
        </mxCell>
        <mxCell id="hoeEztR0vJ94EtKwvEr2-92" value="" style="edgeStyle=none;curved=1;rounded=0;orthogonalLoop=1;jettySize=auto;html=1;fontSize=12;startSize=8;endSize=8;" edge="1" parent="1" source="hoeEztR0vJ94EtKwvEr2-45" target="hoeEztR0vJ94EtKwvEr2-91">
          <mxGeometry relative="1" as="geometry" />
        </mxCell>
        <mxCell id="hoeEztR0vJ94EtKwvEr2-45" value="Stock&lt;div&gt;Available?&lt;/div&gt;" style="rhombus;whiteSpace=wrap;html=1;rounded=0;fillColor=#ffcccc;strokeColor=#36393d;" vertex="1" parent="1">
          <mxGeometry x="391" y="217" width="80" height="80" as="geometry" />
        </mxCell>
        <mxCell id="hoeEztR0vJ94EtKwvEr2-61" value="" style="edgeStyle=none;curved=1;rounded=0;orthogonalLoop=1;jettySize=auto;html=1;fontSize=12;startSize=8;endSize=8;entryX=0.042;entryY=0.57;entryDx=0;entryDy=0;entryPerimeter=0;" edge="1" parent="1" source="hoeEztR0vJ94EtKwvEr2-91" target="hoeEztR0vJ94EtKwvEr2-111">
          <mxGeometry relative="1" as="geometry">
            <mxPoint x="481" y="112" as="sourcePoint" />
            <mxPoint x="593" y="112.00000000000023" as="targetPoint" />
          </mxGeometry>
        </mxCell>
        <mxCell id="hoeEztR0vJ94EtKwvEr2-49" value="Invalid Receipt" style="shape=parallelogram;perimeter=parallelogramPerimeter;whiteSpace=wrap;html=1;fixedSize=1;fillColor=#e51400;fontColor=#ffffff;strokeColor=#B20000;" vertex="1" parent="1">
          <mxGeometry x="-138" y="524" width="120" height="60" as="geometry" />
        </mxCell>
        <mxCell id="hoeEztR0vJ94EtKwvEr2-52" value="no" style="text;html=1;align=center;verticalAlign=middle;resizable=0;points=[];autosize=1;strokeColor=none;fillColor=none;fontSize=16;" vertex="1" parent="1">
          <mxGeometry x="432" y="183" width="36" height="31" as="geometry" />
        </mxCell>
        <mxCell id="hoeEztR0vJ94EtKwvEr2-59" value="" style="edgeStyle=none;curved=1;rounded=0;orthogonalLoop=1;jettySize=auto;html=1;fontSize=12;startSize=8;endSize=8;exitX=0.5;exitY=0;exitDx=0;exitDy=0;entryX=0.5;entryY=1;entryDx=0;entryDy=0;entryPerimeter=0;" edge="1" parent="1" source="hoeEztR0vJ94EtKwvEr2-53" target="hoeEztR0vJ94EtKwvEr2-111">
          <mxGeometry relative="1" as="geometry">
            <mxPoint x="645" y="178" as="sourcePoint" />
            <mxPoint x="653" y="142.00000000000023" as="targetPoint" />
          </mxGeometry>
        </mxCell>
        <mxCell id="hoeEztR0vJ94EtKwvEr2-53" value="Deduct Stock" style="whiteSpace=wrap;html=1;rounded=0;fillColor=#ffff88;strokeColor=#36393d;" vertex="1" parent="1">
          <mxGeometry x="593" y="224" width="120" height="60" as="geometry" />
        </mxCell>
        <mxCell id="hoeEztR0vJ94EtKwvEr2-57" value="yes" style="text;html=1;align=center;verticalAlign=middle;resizable=0;points=[];autosize=1;strokeColor=none;fillColor=none;fontSize=16;" vertex="1" parent="1">
          <mxGeometry x="468" y="224" width="43" height="31" as="geometry" />
        </mxCell>
        <mxCell id="hoeEztR0vJ94EtKwvEr2-65" value="" style="edgeStyle=none;curved=1;rounded=0;orthogonalLoop=1;jettySize=auto;html=1;fontSize=12;startSize=8;endSize=8;exitX=0.5;exitY=0;exitDx=0;exitDy=0;exitPerimeter=0;" edge="1" parent="1" source="hoeEztR0vJ94EtKwvEr2-111" target="hoeEztR0vJ94EtKwvEr2-64">
          <mxGeometry relative="1" as="geometry">
            <mxPoint x="653" y="82.00000000000023" as="sourcePoint" />
          </mxGeometry>
        </mxCell>
        <mxCell id="hoeEztR0vJ94EtKwvEr2-67" value="" style="edgeStyle=none;curved=1;rounded=0;orthogonalLoop=1;jettySize=auto;html=1;fontSize=12;startSize=8;endSize=8;entryX=0;entryY=0.5;entryDx=0;entryDy=0;" edge="1" parent="1" source="hoeEztR0vJ94EtKwvEr2-62" target="hoeEztR0vJ94EtKwvEr2-97">
          <mxGeometry relative="1" as="geometry">
            <mxPoint x="613" y="-184" as="targetPoint" />
          </mxGeometry>
        </mxCell>
        <mxCell id="hoeEztR0vJ94EtKwvEr2-62" value="Supplier Tracking&lt;div&gt;(Update Supplier Records)&lt;/div&gt;" style="whiteSpace=wrap;html=1;rounded=0;fillColor=#ffff88;strokeColor=#36393d;" vertex="1" parent="1">
          <mxGeometry x="222" y="-214" width="120" height="60" as="geometry" />
        </mxCell>
        <mxCell id="hoeEztR0vJ94EtKwvEr2-68" value="" style="edgeStyle=none;curved=1;rounded=0;orthogonalLoop=1;jettySize=auto;html=1;fontSize=12;startSize=8;endSize=8;entryX=0.5;entryY=1;entryDx=0;entryDy=0;" edge="1" parent="1" source="hoeEztR0vJ94EtKwvEr2-64" target="hoeEztR0vJ94EtKwvEr2-97">
          <mxGeometry relative="1" as="geometry">
            <mxPoint x="653" y="-144" as="targetPoint" />
          </mxGeometry>
        </mxCell>
        <mxCell id="hoeEztR0vJ94EtKwvEr2-64" value="Revenue Tracking&lt;div&gt;(Update Financial Records)&lt;/div&gt;" style="whiteSpace=wrap;html=1;rounded=0;fillColor=#ffff88;strokeColor=#36393d;" vertex="1" parent="1">
          <mxGeometry x="593" y="-66" width="120" height="60" as="geometry" />
        </mxCell>
        <mxCell id="hoeEztR0vJ94EtKwvEr2-74" value="" style="edgeStyle=none;curved=1;rounded=0;orthogonalLoop=1;jettySize=auto;html=1;fontSize=12;startSize=8;endSize=8;" edge="1" parent="1" source="hoeEztR0vJ94EtKwvEr2-71" target="hoeEztR0vJ94EtKwvEr2-73">
          <mxGeometry relative="1" as="geometry" />
        </mxCell>
        <mxCell id="hoeEztR0vJ94EtKwvEr2-71" value="Normal Level" style="shape=parallelogram;perimeter=parallelogramPerimeter;whiteSpace=wrap;html=1;fixedSize=1;rounded=0;fillColor=#cdeb8b;strokeColor=#36393d;" vertex="1" parent="1">
          <mxGeometry x="793" y="-214" width="120" height="60" as="geometry" />
        </mxCell>
        <mxCell id="hoeEztR0vJ94EtKwvEr2-78" value="" style="edgeStyle=none;curved=1;rounded=0;orthogonalLoop=1;jettySize=auto;html=1;fontSize=12;startSize=8;endSize=8;" edge="1" parent="1" source="hoeEztR0vJ94EtKwvEr2-73" target="hoeEztR0vJ94EtKwvEr2-77">
          <mxGeometry relative="1" as="geometry" />
        </mxCell>
        <mxCell id="hoeEztR0vJ94EtKwvEr2-73" value="Generate Reports&lt;div&gt;(Inventory Status)&lt;/div&gt;" style="whiteSpace=wrap;html=1;rounded=0;fillColor=#cdeb8b;strokeColor=#36393d;" vertex="1" parent="1">
          <mxGeometry x="1033" y="-214" width="120" height="60" as="geometry" />
        </mxCell>
        <mxCell id="hoeEztR0vJ94EtKwvEr2-80" value="" style="edgeStyle=none;curved=1;rounded=0;orthogonalLoop=1;jettySize=auto;html=1;fontSize=12;startSize=8;endSize=8;" edge="1" parent="1" source="hoeEztR0vJ94EtKwvEr2-77" target="hoeEztR0vJ94EtKwvEr2-79">
          <mxGeometry relative="1" as="geometry" />
        </mxCell>
        <mxCell id="hoeEztR0vJ94EtKwvEr2-77" value="Dashboard&amp;nbsp;&lt;div&gt;Update&lt;/div&gt;" style="shape=parallelogram;perimeter=parallelogramPerimeter;whiteSpace=wrap;html=1;fixedSize=1;rounded=0;fillColor=#cdeb8b;strokeColor=#36393d;" vertex="1" parent="1">
          <mxGeometry x="1033" y="-34" width="120" height="60" as="geometry" />
        </mxCell>
        <mxCell id="hoeEztR0vJ94EtKwvEr2-79" value="END" style="rounded=1;whiteSpace=wrap;html=1;fillColor=#eeeeee;strokeColor=#36393d;" vertex="1" parent="1">
          <mxGeometry x="1033" y="146" width="120" height="60" as="geometry" />
        </mxCell>
        <mxCell id="hoeEztR0vJ94EtKwvEr2-104" value="" style="edgeStyle=none;curved=1;rounded=0;orthogonalLoop=1;jettySize=auto;html=1;fontSize=12;startSize=8;endSize=8;" edge="1" parent="1" source="hoeEztR0vJ94EtKwvEr2-81" target="hoeEztR0vJ94EtKwvEr2-73">
          <mxGeometry relative="1" as="geometry" />
        </mxCell>
        <mxCell id="hoeEztR0vJ94EtKwvEr2-81" value="Low Stock Alert&lt;div&gt;(Notify Management)&lt;/div&gt;" style="whiteSpace=wrap;html=1;rounded=0;fillColor=#e51400;fontColor=#ffffff;strokeColor=#B20000;" vertex="1" parent="1">
          <mxGeometry x="1033" y="-404" width="120" height="60" as="geometry" />
        </mxCell>
        <mxCell id="hoeEztR0vJ94EtKwvEr2-84" value="OCR Text Extraction&lt;div&gt;(BIR Format Recognition)&lt;/div&gt;" style="whiteSpace=wrap;html=1;rounded=0;fillColor=#ffff88;strokeColor=#36393d;" vertex="1" parent="1">
          <mxGeometry x="-138" y="227" width="120" height="60" as="geometry" />
        </mxCell>
        <mxCell id="hoeEztR0vJ94EtKwvEr2-90" value="Alert/Warning" style="text;html=1;align=center;verticalAlign=middle;resizable=0;points=[];autosize=1;strokeColor=#B20000;fillColor=#e51400;fontSize=16;fontColor=#ffffff;" vertex="1" parent="1">
          <mxGeometry x="90" y="-481" width="114" height="31" as="geometry" />
        </mxCell>
        <mxCell id="hoeEztR0vJ94EtKwvEr2-100" value="" style="edgeStyle=none;curved=1;rounded=0;orthogonalLoop=1;jettySize=auto;html=1;fontSize=12;startSize=8;endSize=8;" edge="1" parent="1" source="hoeEztR0vJ94EtKwvEr2-95" target="hoeEztR0vJ94EtKwvEr2-81">
          <mxGeometry relative="1" as="geometry" />
        </mxCell>
        <mxCell id="hoeEztR0vJ94EtKwvEr2-101" value="" style="edgeStyle=none;curved=1;rounded=0;orthogonalLoop=1;jettySize=auto;html=1;fontSize=12;startSize=8;endSize=8;" edge="1" parent="1" source="hoeEztR0vJ94EtKwvEr2-95" target="hoeEztR0vJ94EtKwvEr2-71">
          <mxGeometry relative="1" as="geometry" />
        </mxCell>
        <mxCell id="hoeEztR0vJ94EtKwvEr2-95" value="Below Threshold?" style="rhombus;whiteSpace=wrap;html=1;rounded=0;fillColor=#ffcccc;strokeColor=#36393d;" vertex="1" parent="1">
          <mxGeometry x="813" y="-414" width="80" height="80" as="geometry" />
        </mxCell>
        <mxCell id="hoeEztR0vJ94EtKwvEr2-99" style="edgeStyle=orthogonalEdgeStyle;rounded=0;orthogonalLoop=1;jettySize=auto;html=1;entryX=0;entryY=0.5;entryDx=0;entryDy=0;fontSize=12;startSize=8;endSize=8;" edge="1" parent="1" source="hoeEztR0vJ94EtKwvEr2-97" target="hoeEztR0vJ94EtKwvEr2-95">
          <mxGeometry relative="1" as="geometry">
            <Array as="points">
              <mxPoint x="653" y="-374" />
            </Array>
          </mxGeometry>
        </mxCell>
        <mxCell id="hoeEztR0vJ94EtKwvEr2-97" value="Stock Level Check" style="rounded=0;whiteSpace=wrap;html=1;fillColor=#ffff88;strokeColor=#36393d;" vertex="1" parent="1">
          <mxGeometry x="593" y="-214" width="120" height="60" as="geometry" />
        </mxCell>
        <mxCell id="hoeEztR0vJ94EtKwvEr2-102" value="yes" style="text;html=1;align=center;verticalAlign=middle;resizable=0;points=[];autosize=1;strokeColor=none;fillColor=none;fontSize=16;" vertex="1" parent="1">
          <mxGeometry x="892.5" y="-400.5" width="43" height="31" as="geometry" />
        </mxCell>
        <mxCell id="hoeEztR0vJ94EtKwvEr2-103" value="no" style="text;html=1;align=center;verticalAlign=middle;resizable=0;points=[];autosize=1;strokeColor=none;fillColor=none;fontSize=16;" vertex="1" parent="1">
          <mxGeometry x="856.5" y="-339.5" width="36" height="31" as="geometry" />
        </mxCell>
        <mxCell id="hoeEztR0vJ94EtKwvEr2-105" value="Input/Process" style="shape=parallelogram;perimeter=parallelogramPerimeter;whiteSpace=wrap;html=1;fixedSize=1;fillColor=#cce5ff;strokeColor=#36393d;" vertex="1" parent="1">
          <mxGeometry x="-186" y="-577" width="120" height="60" as="geometry" />
        </mxCell>
        <mxCell id="hoeEztR0vJ94EtKwvEr2-106" value="Decision&amp;nbsp;&lt;div&gt;Point&lt;/div&gt;" style="rhombus;whiteSpace=wrap;html=1;fillColor=#ffcccc;strokeColor=#36393d;" vertex="1" parent="1">
          <mxGeometry x="212" y="-587" width="80" height="80" as="geometry" />
        </mxCell>
        <mxCell id="hoeEztR0vJ94EtKwvEr2-107" value="Processing" style="rounded=0;whiteSpace=wrap;html=1;fillColor=#ffff88;strokeColor=#36393d;" vertex="1" parent="1">
          <mxGeometry x="2.5" y="-577" width="120" height="60" as="geometry" />
        </mxCell>
        <mxCell id="hoeEztR0vJ94EtKwvEr2-108" value="Output/Storage" style="shape=parallelogram;perimeter=parallelogramPerimeter;whiteSpace=wrap;html=1;fixedSize=1;fillColor=#cdeb8b;strokeColor=#36393d;" vertex="1" parent="1">
          <mxGeometry x="-114.5" y="-491" width="120" height="60" as="geometry" />
        </mxCell>
        <mxCell id="hoeEztR0vJ94EtKwvEr2-109" value="Update Database" style="shape=cylinder3;whiteSpace=wrap;html=1;boundedLbl=1;backgroundOutline=1;size=15;fillColor=#cdeb8b;strokeColor=#36393d;" vertex="1" parent="1">
          <mxGeometry x="247.5" y="-80" width="69" height="88" as="geometry" />
        </mxCell>
        <mxCell id="hoeEztR0vJ94EtKwvEr2-111" value="Update Database" style="shape=cylinder3;whiteSpace=wrap;html=1;boundedLbl=1;backgroundOutline=1;size=15;fillColor=#cdeb8b;strokeColor=#36393d;" vertex="1" parent="1">
          <mxGeometry x="618.5" y="61" width="69" height="88" as="geometry" />
        </mxCell>
        <mxCell id="hoeEztR0vJ94EtKwvEr2-112" value="" style="edgeStyle=none;curved=1;rounded=0;orthogonalLoop=1;jettySize=auto;html=1;fontSize=12;startSize=8;endSize=8;" edge="1" parent="1" target="hoeEztR0vJ94EtKwvEr2-91">
          <mxGeometry relative="1" as="geometry">
            <mxPoint x="481" y="112" as="sourcePoint" />
            <mxPoint x="593" y="112.00000000000023" as="targetPoint" />
          </mxGeometry>
        </mxCell>
        <mxCell id="hoeEztR0vJ94EtKwvEr2-91" value="Stock Discrepancy&lt;div&gt;(For Review)&lt;/div&gt;" style="whiteSpace=wrap;html=1;fillColor=#e51400;strokeColor=#B20000;rounded=0;fontColor=#ffffff;" vertex="1" parent="1">
          <mxGeometry x="371" y="82" width="120" height="60" as="geometry" />
        </mxCell>
      </root>
    </mxGraphModel>
  </diagram>
</mxfile>
